<svg width="15" height="15" viewBox="0 0 15 15" fill="none" xmlns="http://www.w3.org/2000/svg">
<path d="M8.40273 11.9882L5.13913 14.365C4.99541 14.4752 4.83992 14.5306 4.67268 14.5313C4.50544 14.532 4.35532 14.4894 4.22232 14.4034C4.08932 14.3175 3.98189 14.205 3.90002 14.0661C3.81811 13.9266 3.79004 13.7651 3.81581 13.5816L4.38581 9.57916L1.10437 7.21031C0.955112 7.09789 0.856356 6.96349 0.808097 6.8071C0.759334 6.65131 0.755967 6.4949 0.797996 6.33786C0.840024 6.18082 0.912146 6.04903 1.01436 5.9425C1.11658 5.83596 1.26332 5.76038 1.45461 5.71576L5.45003 5.01069L6.68338 1.18029C6.73803 1.0082 6.83451 0.874285 6.9728 0.778534C7.11054 0.682832 7.2555 0.628323 7.4077 0.615007C7.5599 0.601692 7.7124 0.630175 7.86522 0.700457C8.01749 0.770787 8.13547 0.885943 8.21918 1.04592L10.0989 4.60396L14.1561 4.60453C14.3522 4.61525 14.5099 4.6642 14.629 4.75137C14.7482 4.83854 14.8421 4.9558 14.9108 5.10315C14.9794 5.25051 15.0035 5.4051 14.9831 5.56694C14.9622 5.72938 14.888 5.87892 14.7605 6.01555L11.9403 8.91823L13.1966 12.7609C13.2539 12.9371 13.2543 13.101 13.1978 13.2526C13.1413 13.4037 13.0551 13.5331 12.939 13.6408C12.823 13.7486 12.6825 13.8166 12.5177 13.845C12.3529 13.8733 12.1901 13.8458 12.0295 13.7622L8.40273 11.9882Z" fill="#FFD700"/>
</svg>
